<?xml version="1.0" standalone="no"?>
<!DOCTYPE svg PUBLIC "-//W3C//DTD SVG 20010904//EN"
 "http://www.w3.org/TR/2001/REC-SVG-20010904/DTD/svg10.dtd">
<svg version="1.0" xmlns="http://www.w3.org/2000/svg"
 width="704.000000pt" height="704.000000pt" viewBox="0 0 704.000000 704.000000"
 preserveAspectRatio="xMidYMid meet">
<metadata>
Created by potrace 1.14, written by Peter Selinger 2001-2017
</metadata>
<g transform="translate(0.000000,704.000000) scale(0.100000,-0.100000)"
fill="#000000" stroke="none">
<path d="M3430 6139 c-207 -19 -424 -66 -525 -115 -109 -51 -386 -197 -453
-238 -101 -61 -203 -104 -338 -141 -110 -31 -149 -37 -269 -42 -77 -3 -182 0
-233 5 -51 6 -100 8 -109 5 -21 -8 150 -70 245 -88 86 -17 216 -20 207 -5 -3
6 -26 10 -49 10 -56 0 -208 28 -221 41 -7 7 7 8 40 4 73 -10 258 10 371 40
156 42 164 45 264 102 117 67 442 231 530 268 139 59 360 106 583 126 72 7
141 13 152 15 11 1 74 3 140 4 78 2 110 5 90 10 -39 10 -316 10 -425 -1z"/>
<path d="M4060 6111 c8 -5 51 -11 95 -15 121 -11 157 -22 313 -97 78 -39 182
-81 230 -95 164 -47 213 -84 479 -351 105 -106 194 -193 198 -193 19 0 -72
103 -285 320 -155 159 -255 223 -395 256 -38 10 -90 28 -115 41 -180 95 -229
116 -300 129 -83 15 -244 19 -220 5z"/>
<path d="M3805 6000 c-4 -6 -20 -8 -41 -4 -36 7 -49 -10 -15 -21 10 -3 29 -14
41 -25 12 -10 27 -21 33 -23 6 -2 7 -9 3 -15 -5 -8 -13 -9 -24 -3 -50 26 -258
69 -246 50 3 -5 14 -9 25 -9 22 0 25 -15 4 -24 -10 -4 -13 -14 -9 -35 8 -41
-1 -70 -35 -109 -29 -33 -29 -33 -60 -18 -17 9 -31 21 -31 27 0 6 -7 9 -15 5
-8 -3 -18 0 -22 7 -25 38 -136 67 -259 67 -121 0 -235 -37 -451 -144 -106 -53
-194 -96 -196 -96 -6 0 -256 -138 -335 -184 -120 -71 -262 -188 -297 -245 -4
-8 39 25 96 73 57 48 147 113 199 145 162 98 313 181 328 181 8 0 47 18 86 39
114 62 282 112 406 120 171 11 226 -1 360 -80 25 -14 49 -39 50 -50 1 -19 -33
-14 -84 11 -31 16 -56 24 -56 19 0 -5 7 -9 16 -9 9 0 12 -5 8 -12 -4 -6 2 -18
12 -26 18 -13 18 -14 -3 -7 -17 5 -23 2 -23 -9 0 -9 -7 -16 -15 -16 -8 0 -15
-4 -15 -10 0 -5 7 -7 15 -4 11 5 13 2 9 -10 -8 -20 -33 -21 -40 -2 -3 9 -19
14 -42 13 -20 0 -47 5 -59 11 -14 8 -24 9 -28 2 -3 -5 -1 -10 5 -10 7 0 10 -7
6 -15 -3 -8 -1 -15 3 -15 5 0 11 6 14 13 3 8 10 7 26 -7 13 -12 18 -23 12 -29
-5 -5 -7 -26 -5 -46 5 -32 4 -34 -7 -16 -21 34 -37 45 -53 39 -15 -6 -21 5
-17 29 1 8 -48 2 -56 -7 -11 -11 8 -38 22 -32 30 11 73 -5 78 -30 2 -14 -1
-24 -7 -24 -7 0 -7 -3 -1 -8 18 -13 13 -56 -8 -74 -23 -21 -63 -24 -70 -5 -3
6 -6 7 -6 2 -1 -7 -16 -9 -36 -7 -35 4 -48 -11 -19 -22 24 -9 12 -41 -16 -41
-17 0 -26 -7 -30 -25 -3 -14 -16 -30 -28 -36 -12 -6 -50 -35 -83 -65 -34 -30
-68 -53 -75 -53 -7 1 -17 -10 -22 -25 -6 -14 -28 -46 -51 -71 -23 -24 -41 -50
-41 -56 0 -7 -7 -14 -15 -18 -8 -3 -15 -13 -15 -22 0 -14 -12 -32 -60 -91 -6
-7 -10 -17 -10 -23 0 -5 -4 -10 -10 -10 -5 0 -10 -5 -10 -10 0 -6 -11 -23 -25
-38 -14 -15 -25 -32 -25 -38 0 -6 -7 -17 -15 -24 -9 -7 -22 -27 -30 -44 -9
-18 -36 -54 -61 -81 -25 -28 -55 -63 -67 -80 -49 -71 -267 -274 -363 -338 -97
-64 -292 -163 -302 -152 -12 12 67 374 104 470 28 75 45 155 33 155 -4 0 -14
-19 -22 -42 -42 -115 -68 -181 -102 -254 -71 -151 -141 -339 -165 -444 -8 -33
-43 -107 -89 -187 -42 -72 -77 -131 -78 -130 -1 1 9 47 23 102 13 55 37 179
53 275 17 102 43 213 62 265 38 109 130 296 171 348 17 21 28 40 25 43 -6 6
-127 -153 -127 -168 0 -15 -41 -80 -47 -74 -2 2 5 23 17 46 12 23 20 44 17 46
-2 2 -51 -12 -108 -32 -57 -19 -146 -49 -198 -67 -52 -17 -89 -33 -82 -35 19
-6 95 15 227 63 67 25 124 45 127 45 13 0 -67 -170 -110 -234 -74 -109 -150
-268 -169 -352 -9 -41 -14 -78 -11 -81 3 -3 9 12 13 33 8 50 60 186 92 244 57
103 104 179 122 195 20 18 20 18 4 -31 -9 -27 -31 -130 -49 -229 -18 -100 -47
-243 -64 -319 -18 -76 -31 -140 -29 -141 2 -1 13 1 24 5 12 5 48 54 84 114 35
58 66 106 70 106 3 0 1 -39 -5 -88 -9 -71 -18 -101 -53 -166 -24 -43 -41 -80
-39 -83 2 -2 18 24 36 57 32 59 45 72 53 48 3 -7 8 8 11 34 4 26 25 88 48 138
22 50 39 94 36 96 -2 2 -16 -23 -30 -56 -15 -33 -29 -60 -33 -60 -14 0 10 120
39 195 l32 80 2 -50 c1 -27 8 -87 14 -131 l12 -82 -33 -68 c-18 -38 -34 -80
-35 -94 -2 -14 -21 -63 -44 -109 -29 -60 -35 -79 -21 -66 17 15 77 131 118
225 10 23 11 22 11 -18 2 -132 -45 -398 -109 -608 -22 -74 -38 -139 -35 -144
3 -5 -23 -33 -59 -62 -73 -59 -71 -76 2 -29 89 57 242 233 297 341 29 57 29
16 0 -73 -44 -136 -145 -331 -232 -447 -18 -25 -55 -60 -81 -77 -40 -28 -43
-33 -23 -33 13 0 64 25 113 56 49 31 92 54 95 50 3 -3 19 4 34 15 52 37 37 11
-55 -96 -31 -35 -25 -7 8 37 11 15 17 30 14 34 -4 3 -32 -39 -64 -93 -40 -68
-83 -122 -139 -178 -92 -92 -258 -220 -348 -270 -77 -43 -68 -46 14 -4 74 37
222 145 307 223 65 61 75 63 41 7 -44 -72 -135 -304 -160 -408 -7 -30 -29 -65
-72 -114 -128 -147 -211 -233 -246 -257 -52 -35 -81 -64 -75 -74 3 -5 22 3 42
18 l35 27 -23 -40 c-21 -38 -22 -73 -2 -73 4 0 13 15 20 34 17 48 87 153 130
196 20 20 63 67 96 104 32 37 60 66 62 64 8 -8 -18 -144 -32 -165 -17 -27 -36
-73 -29 -73 2 0 11 12 19 28 13 24 15 25 22 9 4 -12 -8 -56 -33 -120 -22 -56
-50 -137 -63 -180 -21 -69 -22 -79 -9 -92 13 -13 17 -6 33 62 54 229 98 282
291 349 88 30 152 65 233 125 53 40 66 42 35 5 -17 -20 -17 -20 2 -6 11 7 42
34 69 59 30 28 46 38 41 26 -92 -232 -109 -311 -103 -465 5 -97 29 -213 47
-224 4 -3 1 18 -7 47 -20 73 -20 272 1 365 36 160 107 322 216 490 38 59 84
140 102 180 18 40 35 69 38 65 4 -4 17 -42 30 -83 25 -85 69 -180 82 -180 12
0 11 2 -5 41 -23 55 -48 317 -36 374 l6 30 13 -40 c21 -65 119 -245 171 -315
27 -36 74 -90 105 -120 l57 -55 -45 85 c-69 129 -150 351 -134 367 3 2 27 -24
54 -59 27 -35 96 -110 152 -166 56 -57 128 -143 160 -191 32 -47 66 -93 75
-100 29 -25 19 11 -24 80 -22 35 -54 91 -71 124 -34 65 -102 235 -97 241 2 2
21 -28 42 -66 38 -71 129 -180 140 -169 4 4 -11 48 -34 99 -22 52 -40 98 -40
104 0 6 30 -19 68 -55 37 -36 114 -106 172 -154 146 -123 208 -184 231 -227
27 -52 44 -60 35 -17 -3 19 -9 52 -12 74 l-5 40 66 -70 c95 -101 89 -119 -52
-155 l-43 -11 0 -165 0 -166 -31 -39 c-35 -44 -67 -64 -122 -74 -26 -5 -52
-22 -87 -57 -56 -56 -151 -104 -431 -218 -295 -121 -299 -123 -434 -259 -125
-127 -148 -155 -122 -149 9 1 72 56 141 121 68 64 127 117 129 117 3 0 1 -15
-4 -32 -9 -33 -13 -165 -4 -157 2 3 11 50 20 104 10 64 22 106 33 117 9 9 62
33 117 53 55 21 174 69 265 107 91 38 172 72 180 76 8 3 0 -12 -18 -34 -53
-64 -53 -64 -43 -64 22 0 121 97 191 188 23 30 43 52 45 50 2 -2 0 -23 -6 -46
-13 -57 -3 -87 34 -111 18 -12 27 -21 21 -21 -5 0 -14 4 -20 9 -5 6 -25 13
-44 16 -31 5 -38 2 -80 -43 -37 -41 -53 -50 -91 -56 -25 -4 -54 -4 -63 0 -11
4 -21 2 -26 -6 -5 -7 -24 -14 -44 -14 -86 -3 -48 -26 179 -108 42 -16 51 -26
37 -40 -9 -9 -12 -9 -12 0 0 7 -7 12 -15 12 -8 0 -15 -5 -15 -11 0 -5 4 -8 8
-5 8 5 42 -28 42 -39 0 -10 -36 -5 -48 7 -9 9 -15 9 -24 0 -9 -9 -8 -12 8 -12
16 0 17 -2 4 -10 -8 -5 -39 -10 -67 -10 -57 0 -69 -14 -26 -31 23 -8 24 -12
12 -23 -11 -11 -125 -50 -136 -47 -2 0 -18 -6 -37 -14 -46 -19 -172 -32 -162
-17 4 7 9 22 11 34 3 13 9 24 15 26 5 2 10 11 10 19 0 20 -49 -26 -50 -47 -1
-8 -5 -5 -11 8 -10 25 3 62 22 62 6 0 7 5 3 11 -4 8 -9 7 -15 -2 -5 -8 -9 -10
-9 -5 0 6 10 20 22 33 l22 24 -24 -9 c-13 -5 -29 -17 -35 -28 -17 -30 -34 -46
-44 -40 -5 3 -29 -18 -53 -46 -23 -29 -46 -54 -50 -56 -5 -2 -8 -9 -8 -16 0
-6 -13 -27 -30 -46 -16 -19 -29 -40 -30 -46 0 -15 185 -94 340 -144 173 -57
369 -104 589 -141 179 -31 197 -32 481 -33 179 0 334 4 395 12 454 56 801 157
1180 342 149 73 417 230 422 247 1 5 -17 22 -40 40 -23 17 -51 40 -62 50 -44
41 -159 113 -197 124 -22 6 -83 30 -134 55 -51 24 -122 55 -156 68 -113 43
-185 82 -242 130 -31 27 -56 53 -56 58 0 5 29 53 65 107 119 180 177 317 199
473 33 223 38 252 52 290 16 46 115 208 127 208 9 0 2 -185 -14 -350 -12 -130
-43 -312 -64 -369 -21 -61 -18 -75 6 -22 56 126 96 372 105 635 5 174 10 197
55 255 24 30 24 22 -1 -85 -11 -48 -19 -89 -16 -91 2 -3 21 21 41 52 20 31 51
73 70 93 18 21 48 57 66 81 38 54 119 153 119 148 0 -2 -27 -61 -61 -131 -60
-125 -112 -256 -105 -263 7 -7 77 81 147 186 39 57 94 133 123 170 116 146
185 269 221 394 l17 59 32 -74 c36 -84 88 -178 124 -226 27 -37 41 -37 21 0
-23 42 -59 241 -69 378 -5 74 -12 168 -16 208 -3 39 -4 72 -1 72 3 0 34 -42
69 -92 64 -94 146 -185 186 -207 17 -9 10 8 -33 82 -58 100 -108 212 -102 230
2 6 16 -12 32 -39 16 -27 38 -58 48 -69 15 -15 14 -8 -7 27 -83 147 -106 233
-107 410 0 62 -3 143 -8 181 -4 37 -6 67 -4 67 2 0 24 -15 50 -33 69 -48 139
-77 184 -77 23 0 32 6 40 27 9 25 6 31 -43 77 -52 50 -167 192 -203 251 -23
37 -8 23 70 -68 32 -37 60 -66 62 -63 2 2 -34 54 -80 115 -47 63 -91 134 -102
164 -10 28 -53 129 -95 222 -87 192 -112 263 -135 384 -8 47 -26 104 -39 127
-28 50 -142 198 -180 233 -51 48 -34 13 40 -79 116 -146 142 -198 168 -341 17
-89 19 -97 45 -178 12 -35 20 -66 18 -68 -2 -1 -37 75 -77 170 -73 172 -90
205 -90 175 0 -33 139 -378 175 -434 28 -43 119 -283 111 -291 -8 -8 -155 269
-192 362 -15 39 -36 85 -46 103 -10 18 -18 40 -18 50 0 9 -7 30 -15 46 -8 15
-15 35 -15 42 0 8 -4 22 -9 32 -6 9 -20 51 -31 92 -27 93 -42 121 -94 184 -96
114 -305 344 -346 379 -14 12 -43 40 -65 62 -22 22 -79 71 -127 108 -47 37
-88 71 -90 75 -5 13 -91 68 -117 77 -14 4 -46 21 -72 36 -25 16 -52 29 -60 29
-8 0 -34 8 -59 17 -35 13 -92 17 -254 20 -115 2 -217 8 -226 13 -59 32 -184
58 -195 40z m455 -126 c0 -2 -7 -4 -15 -4 -8 0 -15 4 -15 10 0 5 7 7 15 4 8
-4 15 -8 15 -10z m-588 -131 c45 -47 53 -72 29 -96 -6 -6 -11 -21 -11 -33 0
-12 -6 -24 -14 -27 -7 -3 -16 -20 -20 -37 -8 -41 -51 -97 -145 -189 -79 -77
-147 -128 -157 -118 -4 3 34 48 84 100 49 52 102 115 117 141 30 52 68 212 63
269 -2 20 -1 37 2 37 3 0 26 -21 52 -47z m-180 -15 c-7 -7 -12 -8 -12 -2 0 14
12 26 19 19 2 -3 -1 -11 -7 -17z m433 12 c3 -6 -1 -7 -9 -4 -18 7 -21 14 -7
14 6 0 13 -4 16 -10z m-120 -20 c-3 -5 -11 -10 -16 -10 -6 0 -7 5 -4 10 3 6
11 10 16 10 6 0 7 -4 4 -10z m95 -10 c0 -5 -2 -10 -4 -10 -3 0 -8 5 -11 10 -3
6 -1 10 4 10 6 0 11 -4 11 -10z m-104 -38 c-4 -3 -14 2 -24 12 -16 18 -16 18
6 6 13 -6 21 -14 18 -18z m-466 -112 c-21 -21 -21 -22 -3 -37 17 -14 17 -14 0
-9 -10 3 -23 6 -28 6 -19 0 -8 37 16 50 14 7 25 18 26 24 0 7 2 6 5 -1 3 -6
-4 -21 -16 -33z m210 21 c-5 -11 -10 -29 -10 -40 0 -12 -4 -21 -10 -21 -5 0
-10 2 -10 5 0 12 29 75 35 75 3 0 1 -9 -5 -19z m-30 -95 c0 -3 -4 -8 -10 -11
-5 -3 -10 -1 -10 4 0 6 5 11 10 11 6 0 10 -2 10 -4z m-140 -61 c-12 -15 -30
-12 -30 6 0 5 10 9 21 9 18 0 19 -2 9 -15z m50 -32 c0 -7 -6 -10 -12 -8 -7 3
-13 17 -13 30 0 23 1 24 13 8 6 -9 12 -23 12 -30z m120 -123 c-26 -51 -144
-212 -191 -260 -19 -19 -63 -69 -98 -110 -98 -115 -147 -151 -421 -313 -92
-54 -147 -77 -220 -92 -31 -7 -33 -6 -22 8 8 9 28 19 45 23 57 12 260 119 351
184 168 119 363 303 425 400 8 14 35 52 59 85 24 33 53 78 65 100 11 22 22 35
24 28 2 -6 -5 -30 -17 -53z m-512 39 c-2 -6 -8 -10 -13 -10 -5 0 -11 4 -13 10
-2 6 4 11 13 11 9 0 15 -5 13 -11z m494 -554 c24 -34 -94 -238 -218 -374 -54
-59 -184 -175 -190 -169 -6 6 42 194 69 273 32 93 85 199 111 224 11 11 47 35
79 54 l58 35 42 -16 c23 -9 45 -21 49 -27z m3 -132 c-9 -51 -84 -232 -135
-328 -41 -76 -114 -189 -200 -307 -22 -32 -37 -58 -33 -57 4 0 41 38 82 85 41
46 79 83 85 81 15 -5 81 101 145 233 67 138 74 126 32 -56 -33 -144 -96 -328
-142 -417 -17 -33 -28 -65 -25 -72 6 -18 -101 -182 -154 -235 -3 -3 -12 -14
-20 -25 -35 -46 51 28 123 105 93 101 166 209 252 375 37 72 69 132 72 135 20
21 -62 -235 -118 -366 -28 -65 -53 -126 -56 -134 -8 -19 73 53 151 134 l58 61
-26 -46 c-37 -65 -32 -69 14 -11 22 27 47 52 55 56 8 3 15 12 15 20 0 9 6 13
14 10 8 -3 19 3 26 15 7 14 7 21 0 21 -5 0 -10 -5 -10 -12 0 -6 -3 -9 -6 -6
-3 4 0 16 6 28 10 18 14 20 21 9 7 -12 9 -11 9 2 0 8 -5 20 -12 27 -8 8 -9 12
-1 12 6 0 13 -4 15 -10 2 -5 41 -13 88 -17 75 -7 80 -8 40 -13 -52 -6 -56 -23
-8 -30 33 -6 33 -6 11 -20 -24 -15 -31 -40 -13 -40 6 0 33 11 60 25 61 31 62
31 54 -1 -4 -15 -7 -36 -8 -47 -1 -15 -10 -23 -32 -27 -40 -9 -54 -18 -54 -35
0 -9 6 -12 18 -9 14 5 15 4 2 -5 -8 -6 -23 -11 -32 -11 -27 0 -21 -23 10 -42
20 -13 22 -18 10 -18 -10 0 -18 -5 -18 -11 0 -6 -13 -22 -30 -36 -40 -33 -38
-48 3 -23 44 27 52 25 29 -8 -37 -52 -3 -109 48 -82 27 15 79 -7 85 -35 2 -11
6 -78 9 -149 3 -71 9 -133 15 -139 6 -6 17 5 30 31 22 43 46 62 80 62 29 0 55
-43 46 -77 -8 -33 -60 -91 -92 -104 -29 -11 -29 -21 3 -58 28 -33 29 -31 -24
-47 -26 -8 0 -24 38 -24 32 0 38 3 33 16 -5 14 -1 16 28 10 82 -16 129 -18
129 -7 0 15 25 14 50 -1 16 -10 24 -9 49 10 39 28 52 28 85 -3 33 -30 36 -31
36 -6 0 18 -33 38 -52 33 -14 -3 -9 9 26 66 19 32 42 89 52 127 9 39 19 72 20
73 3 5 74 -18 74 -24 0 -2 -11 -33 -25 -69 -13 -36 -22 -71 -19 -79 3 -7 -13
-49 -36 -92 -44 -83 -122 -265 -117 -271 6 -6 37 32 78 93 21 33 54 74 71 90
l31 29 -38 -70 c-21 -38 -55 -96 -76 -127 -48 -70 -195 -220 -240 -244 -24
-13 -29 -19 -17 -22 18 -3 86 29 186 90 35 21 60 33 55 26 -4 -7 -23 -36 -41
-65 -18 -28 -39 -54 -47 -57 -24 -9 -255 -197 -255 -207 0 -5 -6 -9 -13 -9 -7
0 -26 -13 -42 -30 -16 -16 -25 -30 -21 -30 4 0 -7 -12 -26 -27 -61 -51 -117
-117 -230 -273 -21 -29 -43 -42 -124 -71 -197 -73 -205 -74 -265 -55 -82 26
-505 241 -565 286 -30 23 -79 89 -110 149 -15 30 -30 49 -32 42 -5 -15 15 -67
40 -103 36 -52 17 -47 -38 11 -106 112 -121 138 -346 580 -91 179 -164 336
-171 365 -30 139 16 526 63 539 14 3 22 -3 30 -27 6 -17 20 -51 31 -75 20 -44
14 -71 -15 -71 -6 0 -17 -10 -25 -22 -13 -21 -13 -22 2 -9 10 7 17 11 17 7 0
-4 11 1 25 10 22 14 45 13 45 -4 0 -4 -16 -23 -35 -43 -49 -53 -78 -114 -81
-173 l-3 -51 15 47 c8 26 20 50 26 54 8 5 9 1 4 -11 -14 -38 -27 -109 -21
-123 3 -8 12 -12 20 -9 10 4 18 -9 29 -47 15 -51 56 -106 56 -75 0 8 10 -1 21
-19 12 -18 23 -31 25 -29 2 2 -5 35 -16 73 -28 96 -26 110 11 123 39 14 47 9
71 -45 10 -24 23 -44 28 -44 5 0 14 15 20 34 19 58 66 80 99 47 40 -40 13
-139 -44 -161 -46 -17 -21 -63 32 -60 43 3 45 2 23 -20 -11 -11 -29 -20 -39
-20 -11 0 -22 -4 -26 -9 -10 -18 -17 -136 -9 -181 l8 -45 7 64 c5 36 13 78 20
93 11 26 15 28 70 28 59 0 86 13 49 25 -35 11 -21 22 34 27 32 3 61 11 71 21
9 9 27 17 41 17 13 0 24 5 24 11 0 6 10 24 21 41 48 67 83 303 61 418 -11 62
-8 73 12 44 14 -18 15 -18 21 -1 4 9 1 27 -7 40 -17 25 -13 47 8 47 18 0 17
20 -1 44 -8 11 -15 29 -15 40 -1 31 -47 78 -83 85 -27 6 -32 12 -35 40 -5 49
8 54 65 29 l51 -23 23 -80 c12 -44 25 -84 29 -88 4 -4 5 71 2 168 -2 106 1
222 8 291 l13 115 45 37 c146 117 285 275 341 387 18 36 35 65 38 65 3 0 2
-17 -2 -37z m445 -125 c0 -2 9 -49 20 -106 15 -76 20 -144 20 -263 l0 -160
-37 7 c-21 4 -79 8 -129 8 l-92 1 24 46 c32 63 86 198 119 293 15 43 34 95 43
115 9 20 15 42 13 49 -1 6 3 12 9 12 5 0 10 -1 10 -2z m-1642 -93 c3 -10 0
-15 -7 -11 -12 8 -49 -26 -44 -40 2 -6 -8 -22 -21 -35 -28 -29 -132 -184 -163
-244 -61 -120 -72 -146 -79 -181 -3 -21 -12 -50 -19 -64 -7 -14 -22 -68 -35
-120 -12 -52 -33 -126 -45 -165 -32 -99 -45 -158 -53 -250 -5 -63 -11 -80 -24
-83 -9 -2 -19 5 -22 15 -3 10 -4 6 -2 -9 6 -53 -12 -55 -34 -3 -32 76 -43 95
-52 95 -11 0 -1 -40 32 -127 15 -40 26 -73 25 -73 -6 0 -51 87 -77 150 -69
165 -98 327 -98 539 l0 149 53 18 c112 37 253 106 304 149 6 5 40 33 74 60 35
28 108 95 164 151 55 56 105 100 110 99 6 -1 12 -10 13 -20z m467 -25 c-10
-16 -36 -320 -34 -399 l2 -74 -53 -14 c-29 -7 -55 -11 -58 -8 -14 14 42 224
133 493 2 6 7 12 10 12 4 0 3 -4 0 -10z m-471 -47 c-4 -16 -13 -45 -21 -67 -7
-21 -13 -49 -13 -62 0 -12 -4 -26 -10 -29 -5 -3 -10 -27 -10 -53 -1 -26 -5
-67 -11 -92 -5 -25 -11 -78 -13 -117 -1 -40 -6 -76 -9 -80 -4 -3 -7 -14 -7
-23 0 -10 -7 -23 -15 -30 -8 -7 -13 -16 -10 -20 6 -10 -36 -90 -47 -90 -4 0
-8 -10 -8 -22 0 -13 -4 -29 -9 -37 -6 -10 -10 34 -9 118 0 73 -3 135 -6 138
-16 16 -21 -21 -24 -180 -3 -127 -7 -178 -18 -194 -8 -12 -14 -33 -14 -47 0
-14 -4 -27 -9 -30 -23 -15 -27 447 -4 475 6 8 16 33 22 55 19 71 68 169 103
205 18 19 43 52 56 74 13 22 35 61 50 87 30 53 46 62 36 21z m78 -15 c-7 -7
-12 -8 -12 -2 0 14 12 26 19 19 2 -3 -1 -11 -7 -17z m-25 -60 c-3 -8 -6 -5 -6
6 -1 11 2 17 5 13 3 -3 4 -12 1 -19z m628 -94 c-3 -24 -10 -44 -16 -44 -12 0
-11 8 3 72 14 59 23 39 13 -28z m53 45 c-1 -17 -6 -33 -11 -36 -4 -2 -6 8 -3
24 2 15 5 31 5 36 1 4 3 7 6 7 3 0 4 -14 3 -31z m-1448 -80 c-20 -94 -56 -189
-72 -189 -4 0 -8 3 -8 8 0 11 95 281 98 278 1 -2 -7 -46 -18 -97z m4342 -24
c13 -19 4 -13 -26 18 -25 27 -46 58 -46 69 0 21 6 14 72 -87z m-1515 -12 c-4
-60 -7 -125 -7 -147 0 -38 0 -38 -32 -32 -17 3 -33 8 -35 10 -8 7 62 276 71
276 5 0 6 -47 3 -107z m-204 -58 c-7 -71 -10 -80 -28 -80 -23 0 -24 -2 7 133
18 83 24 95 26 65 1 -21 -1 -74 -5 -118z m1087 74 c0 -4 16 -31 36 -60 42 -62
99 -177 91 -185 -3 -3 -17 18 -32 48 -15 29 -51 94 -81 144 -54 91 -70 130
-34 84 11 -14 20 -28 20 -31z m-2273 -11 c-3 -7 -5 -2 -5 12 0 14 2 19 5 13 2
-7 2 -19 0 -25z m-697 12 c0 -5 -5 -10 -11 -10 -5 0 -7 5 -4 10 3 6 8 10 11
10 2 0 4 -4 4 -10z m650 -84 l0 -84 -36 0 c-22 0 -34 4 -31 12 2 6 10 36 17
66 12 47 34 90 47 90 1 0 3 -38 3 -84z m-672 15 c-7 -11 -16 -17 -20 -15 -4 3
-8 -3 -9 -13 0 -11 -2 -13 -6 -5 -3 7 3 22 13 32 25 25 37 25 22 1z m-8 -63
c0 -7 -5 -20 -10 -28 -8 -12 -10 -9 -10 13 0 15 5 27 10 27 6 0 10 -6 10 -12z
m1673 -55 c-7 -2 -21 -2 -30 0 -10 3 -4 5 12 5 17 0 24 -2 18 -5z m217 -31 c0
-16 -7 -52 -15 -80 -15 -49 -17 -52 -43 -46 -15 4 -29 8 -31 10 -3 3 15 53 42
117 16 37 47 36 47 -1z m-1210 -27 c0 -21 -3 -24 -17 -17 -10 5 -24 7 -32 4
-14 -5 -33 17 -25 30 3 4 21 8 40 8 30 0 34 -3 34 -25z m1404 9 c20 -8 20 -44
2 -104 -14 -47 -20 -50 -83 -35 -28 7 -28 13 -2 86 22 60 38 70 83 53z m-1646
-48 c-1 -2 -20 -6 -42 -10 -29 -6 -37 -4 -34 6 3 7 19 14 36 16 18 2 33 9 33
15 1 7 3 4 6 -6 3 -10 3 -20 1 -21z m1952 -45 c0 -66 -4 -86 -26 -125 -14 -26
-29 -45 -33 -44 -3 2 -18 10 -33 17 -15 8 -29 20 -32 28 -10 25 92 202 117
203 4 0 7 -35 7 -79z m-1985 12 c39 6 40 6 49 -45 l7 -36 -53 -12 c-29 -6 -63
-13 -76 -17 -23 -6 -24 -4 -19 43 5 41 11 80 16 104 1 3 11 -6 21 -19 17 -19
27 -23 55 -18z m-381 -15 c8 -32 7 -48 -3 -48 -5 0 -11 16 -13 35 -4 39 6 48
16 13z m176 2 c0 -5 -5 -10 -11 -10 -5 0 -7 5 -4 10 3 6 8 10 11 10 2 0 4 -4
4 -10z m2811 -108 c22 -49 74 -171 89 -209 6 -13 5 -25 0 -28 -13 -8 -130 248
-130 286 0 21 20 -3 41 -49z m-2902 -89 c1 -13 -3 -23 -9 -23 -5 0 -10 6 -11
13 0 6 -4 35 -8 62 -5 28 -6 55 -3 60 7 10 29 -72 31 -112z m-60 37 c-1 -32
-2 -33 -9 -10 -4 14 -8 36 -9 50 -1 20 1 22 9 10 5 -8 9 -31 9 -50z m451 41
c0 -5 -28 -11 -62 -13 -35 -3 -71 -8 -80 -13 -11 -4 -18 -3 -18 3 0 5 17 14
38 20 47 13 122 15 122 3z m110 -1 c0 -5 -2 -10 -4 -10 -3 0 -8 5 -11 10 -3 6
-1 10 4 10 6 0 11 -4 11 -10z m1765 -82 c-6 -29 -16 -52 -21 -51 -13 2 -17 23
-5 23 6 0 11 11 11 24 0 29 9 56 20 56 4 0 2 -24 -5 -52z m-2253 -82 c-3 -5
-9 -1 -12 10 -4 10 -5 23 -2 28 3 5 9 1 12 -10 4 -10 5 -23 2 -28z m3295 -118
c-3 -8 -6 -5 -6 6 -1 11 2 17 5 13 3 -3 4 -12 1 -19z m-28 -69 c-13 -25 -17
-24 -15 5 0 14 6 22 13 19 9 -4 10 -10 2 -24z m-463 -96 c-3 -16 -12 -57 -20
-93 -40 -185 -66 -265 -102 -317 -35 -51 -55 -65 -39 -26 5 10 10 36 11 58 4
50 33 117 47 108 6 -3 7 -1 4 5 -4 5 6 39 21 74 30 66 43 104 62 176 12 46 26
59 16 15z m-3620 -104 c-8 -100 -17 -123 -82 -214 -64 -88 -111 -141 -119
-133 -5 4 -3 13 2 20 14 17 58 136 84 227 16 53 33 87 59 115 20 23 40 49 43
59 15 40 19 11 13 -74z m2902 47 c-2 -11 -10 -22 -19 -24 -21 -4 -33 26 -18
44 15 18 41 5 37 -20z m-1551 -2 c7 -18 -17 -38 -31 -24 -11 11 -1 40 14 40 6
0 13 -7 17 -16z m2757 -46 c-22 -122 -37 -179 -70 -260 -20 -51 -45 -105 -55
-119 -10 -14 -15 -29 -12 -33 4 -3 -2 -13 -13 -21 -10 -8 -15 -15 -11 -15 9 0
-48 -86 -63 -95 -6 -4 6 23 25 60 20 37 35 68 33 70 -4 4 -83 -78 -79 -83 3
-5 -52 -73 -56 -68 -6 6 30 75 86 166 26 41 53 88 61 103 8 16 16 24 18 18 7
-20 62 28 61 52 -1 20 -2 20 -9 -3 l-8 -25 -2 25 c-3 24 -3 24 -7 3 -2 -13 -9
-23 -15 -23 -6 0 -7 7 -3 18 4 9 8 30 10 45 2 30 25 63 25 37 0 -8 8 -24 17
-35 12 -15 14 -16 10 -3 -3 9 -2 18 3 20 14 5 28 93 18 112 -7 12 -5 14 8 9
13 -5 15 -2 10 15 -4 11 -1 30 6 41 17 28 19 27 12 -11z m61 22 c3 -5 1 -10
-4 -10 -6 0 -11 5 -11 10 0 6 2 10 4 10 3 0 8 -4 11 -10z m-538 -32 c-3 -8 -6
-5 -6 6 -1 11 2 17 5 13 3 -3 4 -12 1 -19z m520 -10 c-3 -8 -6 -5 -6 6 -1 11
2 17 5 13 3 -3 4 -12 1 -19z m58 -112 c10 -67 18 -125 17 -129 -1 -4 2 -17 8
-27 6 -11 7 -20 2 -20 -13 0 -45 77 -37 89 3 6 1 10 -6 9 -6 -2 -14 3 -17 11
-3 10 0 12 12 8 12 -5 16 -3 13 5 -2 7 -10 12 -18 11 -20 -3 -48 57 -38 82 7
18 8 18 8 2 1 -10 7 -17 13 -15 15 5 20 68 7 84 -5 7 -4 11 5 11 9 0 18 -36
31 -121z m-586 61 c-12 -43 -22 -50 -13 -9 9 42 14 55 19 50 2 -2 0 -21 -6
-41z m-3442 -62 c-12 -133 -216 -428 -339 -489 -17 -9 -34 -14 -36 -11 -3 3
-1 5 5 5 5 0 25 21 43 48 19 26 37 49 41 52 12 10 209 417 209 433 0 22 16 22
29 0 8 -15 10 -10 11 21 l0 39 21 -19 c19 -17 21 -27 16 -79z m2613 46 c0 -10
-24 -21 -46 -21 -20 0 -17 18 4 23 29 8 42 7 42 -2z m1246 -15 c0 -14 -5 -21
-9 -17 -4 4 -5 15 -1 24 9 24 12 21 10 -7z m-1086 -70 c-21 -35 -30 -43 -30
-28 0 14 41 74 47 69 3 -3 -5 -22 -17 -41z m-2679 -48 l20 -39 -20 11 c-19 10
-21 8 -23 -17 -2 -53 4 -88 23 -132 20 -46 25 -81 10 -81 -5 0 -14 12 -20 28
-7 15 -21 38 -32 51 -17 21 -22 22 -29 10 -5 -7 -7 -22 -4 -32 3 -10 -1 -19
-10 -23 -10 -4 -16 -19 -16 -41 0 -19 -8 -42 -17 -51 -16 -16 -16 -15 -9 8 4
14 9 36 11 50 8 53 22 106 32 124 6 10 8 38 5 62 -5 48 1 53 31 27 18 -16 20
-16 14 -2 -3 9 -1 21 5 27 8 8 6 18 -6 36 -9 14 -16 31 -16 37 0 20 30 -11 51
-53z m379 -19 c0 -6 -4 -7 -10 -4 -5 3 -10 11 -10 16 0 6 5 7 10 4 6 -3 10
-11 10 -16z m69 -113 c64 -105 74 -133 28 -76 -34 41 -97 149 -97 164 0 18 23
-12 69 -88z m2411 -32 c0 -3 -7 -1 -15 6 -8 7 -15 17 -15 22 0 5 7 3 15 -6 8
-8 15 -18 15 -22z m-2764 -21 c-18 -33 -21 -26 -6 13 6 15 13 24 16 21 3 -3
-1 -18 -10 -34z m2719 18 c-3 -6 -11 -11 -16 -11 -5 0 -4 6 3 14 14 16 24 13
13 -3z m-2945 5 c0 -2 -7 -9 -15 -16 -13 -11 -14 -10 -9 4 5 14 24 23 24 12z
m2908 -54 c8 2 17 -4 19 -12 4 -13 3 -13 -6 0 -7 10 -11 11 -11 3 0 -22 -16
-14 -28 12 -15 33 -14 48 0 17 6 -12 18 -21 26 -20z m42 18 c0 -5 -5 -10 -11
-10 -5 0 -7 5 -4 10 3 6 8 10 11 10 2 0 4 -4 4 -10z m-2965 -42 c-4 -18 -13
-38 -20 -43 -7 -6 -17 -29 -21 -50 -8 -48 -87 -208 -149 -305 -24 -38 -58 -97
-76 -132 -34 -68 -114 -176 -218 -297 -35 -42 -66 -78 -68 -80 -2 -2 -6 -2 -9
1 -7 8 59 200 96 283 84 183 104 219 177 308 43 52 96 118 118 147 22 28 59
67 83 86 23 20 51 53 62 75 25 48 34 50 25 7z m3058 -8 c-17 -30 -33 -39 -33
-20 0 12 32 48 43 49 5 1 0 -12 -10 -29z m-2975 0 c-7 -11 -16 -20 -20 -20 -5
0 -3 9 4 20 7 11 16 20 20 20 5 0 3 -9 -4 -20z m2932 5 c0 -3 -11 -10 -25 -15
-31 -12 -33 -30 -2 -24 20 4 20 4 -3 -8 -45 -22 -76 -67 -47 -69 10 0 10 -2 0
-6 -7 -2 -13 -9 -13 -14 0 -10 -37 -49 -46 -49 -4 0 6 16 20 35 15 19 22 35
16 35 -11 0 25 68 54 102 14 16 46 25 46 13z m-109 -37 c-11 -18 -27 -32 -35
-30 -19 3 -32 -18 -16 -28 9 -6 8 -14 -5 -34 -10 -14 -21 -26 -26 -26 -5 0
-15 -12 -23 -27 -8 -16 -25 -40 -37 -55 -13 -15 -46 -59 -74 -97 -27 -39 -54
-71 -59 -71 -5 0 -1 10 8 23 9 12 19 29 23 37 4 8 12 20 17 26 6 6 18 22 26
35 8 13 30 38 48 58 17 19 32 39 32 44 0 5 8 16 17 23 10 7 15 16 11 20 -4 4
-16 1 -25 -7 -16 -13 -17 -12 -4 4 8 10 21 15 31 12 18 -6 35 19 24 36 -7 13
28 57 43 52 6 -2 14 5 18 16 3 12 11 21 17 21 5 0 1 -15 -11 -32z m109 -28 c0
-5 -4 -10 -10 -10 -5 0 -10 5 -10 10 0 6 5 10 10 10 6 0 10 -4 10 -10z m-3140
-4 c0 -2 -8 -10 -17 -17 -16 -13 -17 -12 -4 4 13 16 21 21 21 13z m358 -31
c18 -39 14 -50 -8 -24 -11 15 -19 19 -20 11 0 -8 -6 -28 -14 -45 -8 -18 -33
-81 -56 -142 -23 -60 -46 -114 -51 -120 -5 -5 -9 -20 -9 -33 0 -13 -4 -21 -10
-17 -7 4 -9 -2 -4 -19 6 -26 -16 -95 -63 -196 -25 -55 -82 -133 -157 -217 -40
-44 -61 -52 -33 -11 9 13 30 42 47 66 16 23 30 45 30 48 0 3 11 20 25 38 14
18 25 38 25 44 0 6 5 12 11 14 5 2 11 10 12 19 2 8 12 28 24 44 25 36 73 134
73 149 0 6 -10 -4 -21 -21 -45 -71 -30 -31 39 104 23 46 53 113 67 150 14 38
29 77 34 88 5 11 15 37 21 58 14 44 23 46 38 12z m2742 10 c-7 -9 -15 -13 -17
-11 -7 7 7 26 19 26 6 0 6 -6 -2 -15z m-225 -55 c-3 -5 -11 -10 -16 -10 -6 0
-7 5 -4 10 3 6 11 10 16 10 6 0 7 -4 4 -10z m-2 -50 c-10 -11 -19 -20 -21 -20
-1 0 2 9 8 20 6 11 15 20 20 20 6 0 2 -9 -7 -20z m-113 -37 c-10 -21 -34 -72
-53 -113 -29 -62 -54 -95 -145 -187 -103 -105 -115 -114 -217 -162 -60 -28
-113 -50 -118 -48 -12 4 63 101 116 151 26 23 34 36 22 32 -16 -6 -14 -1 10
24 16 17 34 29 41 26 6 -2 11 3 10 11 0 9 15 24 34 35 19 11 44 29 56 41 11
12 58 54 104 92 46 39 99 85 119 102 20 18 37 33 38 33 2 0 -6 -17 -17 -37z
m24 -51 c-8 -18 -20 -32 -26 -32 -6 0 -4 9 4 23 8 12 18 28 22 35 16 26 16 5
0 -26z m-2584 -38 c0 -21 -58 -145 -110 -235 -41 -70 -182 -229 -225 -251 -19
-11 -19 -11 0 18 10 16 42 61 70 99 76 103 166 241 209 318 36 65 56 84 56 51z
m2655 -48 c-9 -13 -23 -27 -31 -30 -10 -4 -7 4 8 23 28 36 45 41 23 7z m-118
-26 c-3 -10 -1 -20 3 -22 5 -2 -5 -19 -22 -38 -27 -32 -28 -32 -17 -7 7 15 15
27 19 27 5 0 8 6 7 13 -1 26 3 47 9 47 4 0 4 -9 1 -20z m-245 -32 c-7 -7 -12
-8 -12 -2 0 14 12 26 19 19 2 -3 -1 -11 -7 -17z m-2537 -47 c-3 -16 -44 -87
-91 -157 -46 -70 -84 -129 -84 -130 0 -2 -12 -16 -26 -31 -15 -15 -33 -43 -41
-61 -8 -20 -18 -30 -25 -26 -7 4 -8 3 -4 -4 9 -15 -166 -323 -178 -312 -5 5
-1 18 8 31 9 13 16 31 16 40 0 10 3 19 8 21 9 4 39 47 76 108 l27 45 -31 -35
c-17 -19 -40 -52 -51 -72 -10 -21 -23 -38 -27 -38 -5 0 -4 27 1 59 9 56 16 67
111 178 103 120 259 331 290 391 20 40 31 36 21 -7z m3287 -48 c-3 -49 -9 -91
-14 -94 -6 -4 -6 -9 1 -13 6 -4 9 -17 6 -29 -6 -31 -13 -94 -25 -225 -14 -163
-55 -272 -185 -491 -47 -78 -190 -239 -202 -227 -3 3 4 16 15 30 10 14 22 23
25 20 14 -14 93 118 134 226 58 150 75 241 74 380 -1 99 1 110 33 187 19 45
40 101 46 125 13 47 50 130 61 138 4 3 12 18 18 33 6 15 12 27 14 27 2 0 1
-39 -1 -87z m-582 33 c-7 -24 -28 -47 -62 -71 -27 -20 -53 -34 -56 -30 -3 3
13 24 35 48 22 23 51 54 63 69 29 35 35 30 20 -16z m102 -9 c-12 -13 -22 -29
-22 -37 0 -7 -3 -11 -6 -7 -4 3 -15 -4 -25 -16 -12 -14 -18 -17 -19 -8 0 7 17
31 39 52 41 41 69 55 33 16z m-1556 -82 c16 -14 45 -36 64 -48 l35 -22 -27 -3
c-36 -4 -65 12 -88 51 -33 53 -27 59 16 22z m-1151 -100 c-26 -36 -50 -64 -52
-61 -3 3 1 12 8 20 8 9 30 38 49 65 19 27 36 48 38 46 2 -2 -17 -33 -43 -70z
m2436 -16 c-28 -27 -56 -49 -62 -49 -16 0 40 74 75 98 51 36 42 5 -13 -49z
m609 0 c-17 -39 -20 -41 -20 -17 0 24 28 73 37 64 2 -2 -6 -23 -17 -47z m-720
-38 c0 -5 -7 -12 -16 -15 -14 -5 -15 -4 -4 9 14 17 20 19 20 6z m127 -118
l-54 -108 -53 -3 -52 -3 20 28 c11 15 36 45 55 65 20 21 38 47 42 58 8 25 88
95 93 80 2 -5 -21 -58 -51 -117z m463 75 c0 -2 -9 -32 -20 -67 l-19 -63 26 23
c30 28 26 19 -38 -76 -71 -104 -113 -149 -218 -236 -96 -79 -111 -89 -111 -68
0 8 -5 8 -15 -1 -8 -7 -12 -17 -8 -24 3 -6 0 -6 -8 2 -11 10 -9 15 11 30 14 9
28 16 33 14 4 -1 7 4 7 11 0 8 18 33 40 58 22 24 40 40 40 36 0 -13 54 45 75
81 11 17 23 32 27 32 4 0 8 8 8 18 0 9 20 48 45 85 25 38 45 72 45 75 0 9 63
72 72 72 4 0 8 -1 8 -2z m57 -90 c-44 -103 -234 -348 -271 -348 -17 0 0 23 63
88 38 40 102 121 143 182 40 60 74 110 76 110 1 0 -4 -15 -11 -32z m-690 -47
c-23 -33 -46 -60 -50 -60 -4 -1 8 20 27 47 44 59 56 72 61 72 3 0 -14 -27 -38
-59z m708 -109 c-3 -39 -15 -107 -26 -150 -18 -74 -80 -215 -112 -256 -14 -19
-16 -17 -50 30 -20 27 -48 71 -62 97 l-27 48 64 68 c63 66 163 206 189 265
l13 28 9 -28 c4 -16 5 -62 2 -102z m-1299 54 c19 -17 34 -34 34 -37 0 -7 -89
-34 -94 -28 -2 2 -1 33 2 68 4 50 7 60 15 46 5 -10 25 -32 43 -49z m-229 -154
c-15 -16 -15 -22 -1 -62 15 -43 42 -87 76 -124 10 -11 18 -25 18 -31 0 -20 41
-60 57 -57 12 3 11 -2 -4 -21 -13 -19 -21 -22 -31 -14 -9 7 -10 12 -2 17 6 4
-3 7 -19 8 -35 1 -36 -3 -17 -49 13 -33 14 -94 2 -106 -3 -3 -23 6 -45 20 -40
27 -60 26 -38 -2 10 -14 10 -14 -5 -3 -9 8 -14 20 -11 28 3 8 0 14 -6 14 -6 0
-11 -11 -11 -25 0 -14 -5 -25 -11 -25 -8 0 -9 11 -4 33 7 27 11 145 14 380 1
33 4 37 28 37 24 0 25 -1 10 -18z m908 -49 c-11 -27 -15 -57 -19 -175 -3 -60
-7 -112 -10 -116 -6 -11 -96 -46 -101 -40 -2 2 2 31 10 63 13 59 38 118 46
111 2 -3 5 8 6 22 0 15 6 28 12 30 6 2 13 20 17 40 7 38 34 95 42 87 3 -2 1
-12 -3 -22z m68 -165 c-13 -12 -26 -18 -30 -14 -4 4 1 14 11 22 31 22 43 17
19 -8z m272 12 c3 -6 -1 -7 -9 -4 -18 7 -21 14 -7 14 6 0 13 -4 16 -10z m48
-65 c23 -32 17 -32 -13 0 -13 14 -19 25 -14 25 5 0 17 -12 27 -25z m-1065 -71
c4 -27 -21 -47 -48 -39 -38 12 -16 69 25 63 11 -2 21 -12 23 -24z m1116 10 c3
-8 2 -12 -4 -9 -6 3 -10 10 -10 16 0 14 7 11 14 -7z m-1445 -70 c-26 -28 -70
-54 -91 -54 -7 1 1 8 17 17 17 9 43 27 58 39 38 32 46 30 16 -2z m971 -90 c-5
-61 -17 -137 -25 -169 -18 -71 -74 -213 -86 -221 -5 -3 -9 -13 -9 -23 0 -23
-49 -81 -69 -82 -10 0 -12 -2 -3 -6 6 -2 10 -9 7 -13 -3 -5 -12 -7 -20 -4 -8
4 -15 -3 -17 -18 -2 -15 -9 -22 -21 -21 -12 0 -16 -4 -13 -12 3 -8 -13 -29
-37 -49 -78 -65 -120 -96 -128 -96 -4 0 -14 -6 -21 -12 -19 -17 -99 -61 -103
-56 -2 2 25 35 61 73 36 39 88 102 115 140 62 86 154 266 169 332 7 26 20 75
31 108 10 33 28 92 39 130 l19 70 58 21 c32 12 59 20 61 19 1 -1 -2 -51 -8
-111z m697 -46 c32 -21 66 -38 76 -38 10 0 15 -5 12 -10 -4 -6 -11 -8 -16 -4
-6 3 -25 6 -44 6 -22 0 -32 4 -29 12 4 11 -11 16 -59 19 -11 1 -15 7 -12 16 7
17 -22 64 -35 56 -6 -4 -10 -1 -10 5 0 6 -7 18 -15 26 -8 9 -15 20 -15 26 0 6
20 -9 45 -33 25 -24 71 -61 102 -81z m-1437 89 c-8 -7 -22 -21 -30 -32 -10
-13 -4 -11 21 8 20 15 38 24 42 21 8 -8 -99 -183 -113 -184 -3 0 -7 15 -8 33
-2 24 0 28 8 17 7 -11 8 -7 4 16 -4 20 0 43 10 62 18 35 67 84 76 76 3 -3 -2
-11 -10 -17z m1300 -17 c7 -16 17 -30 22 -30 5 0 6 -4 3 -10 -3 -5 0 -7 8 -4
8 3 18 1 22 -5 3 -6 1 -11 -4 -11 -6 0 -11 -7 -11 -15 0 -28 -18 -15 -37 25
-11 24 -25 40 -36 40 -10 0 -16 4 -12 10 3 5 11 8 18 6 7 -1 9 -1 5 1 -11 6
-10 23 1 23 5 0 14 -13 21 -30z m-1475 0 c-3 -5 -11 -10 -16 -10 -6 0 -7 5 -4
10 3 6 11 10 16 10 6 0 7 -4 4 -10z m259 -12 c38 -54 28 -140 -22 -196 -39
-43 -85 -45 -106 -3 -14 26 -13 31 6 67 37 71 91 154 99 154 4 0 15 -10 23
-22z m-60 -408 c4 -27 -1 -44 -20 -74 -24 -35 -27 -37 -38 -20 -31 45 -26 89
17 142 15 19 34 -4 41 -48z m289 4 c9 -10 -4 -34 -18 -34 -17 0 -28 17 -20 30
7 11 28 13 38 4z m-1329 -145 c-3 -5 -10 -7 -15 -3 -5 3 -7 10 -3 15 3 5 10 7
15 3 5 -3 7 -10 3 -15z m986 -68 c0 -20 -23 -45 -33 -35 -7 8 14 54 25 54 4 0
8 -8 8 -19z"/>
<path d="M3950 3810 c0 -5 5 -10 10 -10 6 0 10 5 10 10 0 6 -4 10 -10 10 -5 0
-10 -4 -10 -10z"/>
<path d="M4425 2966 c-30 -22 -6 -40 39 -32 39 7 47 20 19 30 -10 3 -23 8 -28
11 -6 3 -20 -1 -30 -9z"/>
<path d="M2553 2953 c-23 -9 -14 -25 10 -18 31 10 45 25 22 24 -11 0 -26 -3
-32 -6z"/>
<path d="M4255 2940 l-40 -18 30 -11 c16 -7 46 -9 67 -6 48 8 62 -2 79 -60 14
-49 33 -63 23 -17 -15 69 -35 132 -42 132 -5 0 -14 -6 -20 -12 -10 -10 -17
-10 -32 0 -11 6 -21 12 -22 11 -2 0 -21 -9 -43 -19z"/>
<path d="M2867 2909 c-24 -14 -11 -32 14 -19 10 6 19 15 19 20 0 13 -10 12
-33 -1z"/>
<path d="M2577 2840 c-3 -11 -1 -23 4 -26 5 -3 9 6 9 20 0 31 -6 34 -13 6z"/>
<path d="M3357 2814 c-11 -11 -8 -64 3 -64 14 0 24 50 13 61 -5 5 -12 6 -16 3z"/>
<path d="M4400 2710 c0 -5 5 -10 11 -10 5 0 7 5 4 10 -3 6 -8 10 -11 10 -2 0
-4 -4 -4 -10z"/>
<path d="M3389 2382 c-31 -21 -22 -32 26 -32 25 0 45 4 45 9 0 17 31 21 58 7
38 -19 90 -27 97 -16 17 27 -191 57 -226 32z"/>
<path d="M2715 2323 c16 -38 25 -52 25 -39 0 12 -29 76 -35 76 -3 0 2 -17 10
-37z"/>
<path d="M2210 3994 c0 -8 5 -12 10 -9 6 3 10 10 10 16 0 5 -4 9 -10 9 -5 0
-10 -7 -10 -16z"/>
<path d="M2101 3944 c0 -11 3 -14 6 -6 3 7 2 16 -1 19 -3 4 -6 -2 -5 -13z"/>
<path d="M2201 3834 c0 -11 3 -14 6 -6 3 7 2 16 -1 19 -3 4 -6 -2 -5 -13z"/>
<path d="M2159 3808 c-6 -84 -5 -109 3 -114 5 -3 8 17 7 48 -1 30 1 60 5 66 4
7 2 12 -3 12 -6 0 -11 -6 -12 -12z"/>
<path d="M2070 3690 c0 -5 5 -10 11 -10 5 0 7 5 4 10 -3 6 -8 10 -11 10 -2 0
-4 -4 -4 -10z"/>
<path d="M4640 3730 c0 -5 5 -10 11 -10 5 0 7 5 4 10 -3 6 -8 10 -11 10 -2 0
-4 -4 -4 -10z"/>
<path d="M4650 3670 c0 -5 5 -10 11 -10 5 0 7 5 4 10 -3 6 -8 10 -11 10 -2 0
-4 -4 -4 -10z"/>
<path d="M5130 2900 c0 -11 4 -20 9 -20 5 0 7 9 4 20 -3 11 -7 20 -9 20 -2 0
-4 -9 -4 -20z"/>
<path d="M5635 2931 c-3 -5 -1 -12 5 -16 5 -3 10 1 10 9 0 18 -6 21 -15 7z"/>
<path d="M5588 2785 c-2 -17 -8 -29 -15 -27 -7 1 -13 -2 -13 -8 0 -5 4 -10 10
-10 5 0 7 -7 4 -15 -4 -8 -2 -15 3 -15 15 0 33 71 23 89 -6 12 -9 9 -12 -14z"/>
<path d="M5541 2713 c-7 -8 -11 -16 -8 -19 2 -2 10 2 17 11 17 20 9 27 -9 8z"/>
<path d="M5792 2979 c2 -7 10 -15 17 -17 8 -3 12 1 9 9 -2 7 -10 15 -17 17 -8
3 -12 -1 -9 -9z"/>
<path d="M1761 2924 c0 -11 3 -14 6 -6 3 7 2 16 -1 19 -3 4 -6 -2 -5 -13z"/>
<path d="M4121 1831 c-7 -5 -12 -14 -10 -20 2 -6 10 -2 17 9 14 22 13 23 -7
11z"/>
<path d="M4037 1725 c-6 -15 10 -32 20 -21 4 3 1 6 -5 6 -6 0 -9 7 -6 15 4 8
4 15 1 15 -3 0 -7 -7 -10 -15z"/>
<path d="M3006 5655 c-11 -8 -15 -15 -10 -15 6 0 14 4 20 9 5 5 18 11 29 14
l20 5 -20 1 c-11 0 -29 -6 -39 -14z"/>
<path d="M3210 5660 c19 -13 30 -13 30 0 0 6 -10 10 -22 10 -19 0 -20 -2 -8
-10z"/>
<path d="M3050 5622 c0 -4 9 -13 20 -20 23 -14 26 -7 6 14 -16 15 -26 18 -26
6z"/>
<path d="M3050 5561 c0 -12 6 -21 15 -21 8 0 15 3 15 6 0 3 -7 12 -15 20 -13
14 -15 13 -15 -5z"/>
<path d="M1943 5388 c-6 -7 -16 -24 -23 -38 -12 -24 -11 -24 19 4 17 17 31 33
31 38 0 12 -16 10 -27 -4z"/>
<path d="M2955 5290 c3 -5 10 -10 16 -10 5 0 9 5 9 10 0 6 -7 10 -16 10 -8 0
-12 -4 -9 -10z"/>
<path d="M1823 5228 c-15 -20 -25 -38 -20 -38 3 0 12 11 21 25 17 26 16 35 -1
13z"/>
<path d="M2845 5210 c3 -5 8 -10 11 -10 2 0 4 5 4 10 0 6 -5 10 -11 10 -5 0
-7 -4 -4 -10z"/>
<path d="M1780 5107 c-35 -33 -146 -163 -208 -244 -18 -23 -43 -66 -57 -97
-20 -45 -42 -70 -132 -147 -120 -102 -135 -116 -113 -104 54 30 223 169 264
217 35 41 42 63 11 38 -32 -26 -23 -3 14 35 20 22 52 63 71 90 18 28 52 73 74
100 73 88 117 145 114 145 -2 0 -19 -15 -38 -33z"/>
<path d="M2476 4794 c-4 -9 -4 -19 -1 -22 2 -3 7 3 11 12 4 9 4 19 1 22 -2 3
-7 -3 -11 -12z"/>
<path d="M2380 4661 c0 -6 5 -13 10 -16 6 -3 10 1 10 9 0 9 -4 16 -10 16 -5 0
-10 -4 -10 -9z"/>
<path d="M2360 4610 c0 -5 5 -10 11 -10 5 0 7 5 4 10 -3 6 -8 10 -11 10 -2 0
-4 -4 -4 -10z"/>
<path d="M2287 4593 c-4 -3 -7 -11 -7 -17 0 -6 5 -5 12 2 6 6 9 14 7 17 -3 3
-9 2 -12 -2z"/>
<path d="M1198 4485 c-20 -13 -83 -49 -140 -80 -107 -57 -120 -75 -20 -28 56
26 212 121 212 129 0 9 -18 2 -52 -21z"/>
<path d="M1140 4359 c0 -5 5 -7 10 -4 6 3 10 8 10 11 0 2 -4 4 -10 4 -5 0 -10
-5 -10 -11z"/>
<path d="M1104 4336 c-7 -7 -27 -25 -45 -39 -18 -14 -31 -28 -28 -32 3 -3 28
15 55 40 27 24 45 44 39 44 -5 0 -15 -6 -21 -13z"/>
<path d="M1460 3471 c-6 -12 -15 -19 -21 -16 -5 4 -9 0 -9 -7 0 -14 -53 -71
-114 -123 -34 -29 -56 -60 -37 -53 5 1 42 35 83 73 75 71 124 132 115 141 -3
3 -10 -4 -17 -15z"/>
<path d="M875 1885 c-25 -12 -26 -14 -5 -9 14 4 29 10 35 15 12 12 5 11 -30
-6z"/>
<path d="M1050 1330 c0 -5 5 -10 10 -10 6 0 10 5 10 10 0 6 -4 10 -10 10 -5 0
-10 -4 -10 -10z"/>
<path d="M1021 1255 c-12 -31 -21 -61 -21 -68 1 -7 12 17 26 52 13 35 22 66
20 68 -2 3 -13 -21 -25 -52z"/>
<path d="M980 1146 c-15 -41 -10 -56 6 -17 8 18 13 36 10 39 -3 2 -10 -7 -16
-22z"/>
</g>
</svg>
